<svg width="20" height="21" viewBox="0 0 20 21" fill="none" xmlns="http://www.w3.org/2000/svg">
<path d="M19.31 12.362V10.5001C19.31 9.71889 19.307 8.32643 19.295 7.70703H0.699301C0.687267 8.32643 0.690276 9.71889 0.690276 10.5001V12.362C0.690276 15.873 0.690276 17.6284 1.78103 18.7192C2.87171 19.81 4.62723 19.81 8.13812 19.81H11.8621C15.3731 19.81 17.1286 19.81 18.2192 18.7192C19.31 17.6284 19.31 15.873 19.31 12.362Z" fill="#9282FA" fill-opacity="0.4"/>
<path d="M5.28953 1.19019C5.67666 1.19019 5.99055 1.49197 5.99055 1.86429V3.22421C6.61233 3.21266 7.30931 3.21266 8.09354 3.21266H11.8323C12.6165 3.21266 13.3135 3.21266 13.9353 3.22421V1.86429C13.9353 1.49197 14.2491 1.19019 14.6363 1.19019C15.0235 1.19019 15.3374 1.49197 15.3374 1.86429V3.28391C16.6826 3.38746 17.5658 3.64174 18.2147 4.26573C18.8635 4.88972 19.1279 5.7391 19.2357 7.03284L19.3099 7.70703H0.690186V7.03284C0.797931 5.7391 1.06235 4.88972 1.7112 4.26573C2.36005 3.64174 3.24323 3.38746 4.58851 3.28391V1.86429C4.58851 1.49197 4.90241 1.19019 5.28953 1.19019Z" fill="#9282FA"/>
</svg>
